<?xml version='1.0' encoding='utf-8'?>
<!-- Generator: imaengine 6.0   -->
<svg viewBox="0,0,3371,1440" xmlns:xlink="http://www.w3.org/1999/xlink" xmlns="http://www.w3.org/2000/svg" width="3371" height="1440" version="1.1">
<defs/>
<g id="layer0">
<path d="M0,0L3371,0L3371,1440L0,1440L0,0Z" fill="#f2e5e5"/>
</g>
<g id="layer1">
<path stroke="#f7f7f8" stroke-width="40.39" d="M0,1440L3371,1440L3371,0L0,0L0,1440Z" fill="#f7f7f8" stroke-linecap="round" fill-opacity="0" stroke-linejoin="round"/>
<path stroke="#e5eae8" stroke-width="40.39" d="M38,1401L3157,1397L38,1401Z" fill="#e5eae8" stroke-linecap="round" fill-opacity="0" stroke-linejoin="round"/>
<path stroke="#55b2b4" stroke-width="40.39" d="M38,1401L3157,1397L3160,1394L35,1397L38,1401Z" fill="#55b2b4" stroke-linecap="round" fill-opacity="0" stroke-linejoin="round"/>
<path stroke="#20676a" stroke-width="40.39" d="M35,1397L3160,1394L3164,1390L31,1390L31,1394L35,1397Z" fill="#20676a" stroke-linecap="round" fill-opacity="0" stroke-linejoin="round"/>
<path stroke="#15504f" stroke-width="40.39" d="M31,1390L3164,1390L3171,1383L3171,1352L3160,1345L35,1345L24,1352L31,1390Z" fill="#15504f" stroke-linecap="round" fill-opacity="0" stroke-linejoin="round"/>
<path stroke="#bbdad8" stroke-width="40.39" d="M17,1383L21,1383L17,1383Z" fill="#bbdad8" stroke-linecap="round" fill-opacity="0" stroke-linejoin="round"/>
<path stroke="#3f9a9c" stroke-width="40.39" d="M21,1383L24,1352L21,1383Z" fill="#3f9a9c" stroke-linecap="round" fill-opacity="0" stroke-linejoin="round"/>
<path stroke="#3f9a9c" stroke-width="40.39" d="M3171,1383L3171,1352L3171,1383Z" fill="#3f9a9c" stroke-linecap="round" fill-opacity="0" stroke-linejoin="round"/>
<path stroke="#32827e" stroke-width="40.39" d="M35,1345L3160,1345L35,1341L35,1345Z" fill="#32827e" stroke-linecap="round" fill-opacity="0" stroke-linejoin="round"/>
<path stroke="#84c9c9" stroke-width="40.39" d="M35,1341L3160,1338L35,1341Z" fill="#84c9c9" stroke-linecap="round" fill-opacity="0" stroke-linejoin="round"/>
<path stroke="#e5eae8" stroke-width="40.39" d="M38,1313L3146,1310L38,1313Z" fill="#e5eae8" stroke-linecap="round" fill-opacity="0" stroke-linejoin="round"/>
<path stroke="#55b2b4" stroke-width="40.39" d="M38,1313L3146,1310L3150,1306L35,1306L35,1310L38,1313Z" fill="#55b2b4" stroke-linecap="round" fill-opacity="0" stroke-linejoin="round"/>
<path stroke="#20676a" stroke-width="40.39" d="M35,1306L3150,1306L35,1303L35,1306Z" fill="#20676a" stroke-linecap="round" fill-opacity="0" stroke-linejoin="round"/>
<path stroke="#15504f" stroke-width="40.39" d="M3150,1306L3146,1274L35,1278L35,1303L3150,1306Z" fill="#15504f" stroke-linecap="round" fill-opacity="0" stroke-linejoin="round"/>
<path stroke="#32827e" stroke-width="40.39" d="M35,1278L3146,1274L35,1278Z" fill="#32827e" stroke-linecap="round" fill-opacity="0" stroke-linejoin="round"/>
<path stroke="#bbdad8" stroke-width="40.39" d="M66,1218L3129,1215L66,1218Z" fill="#bbdad8" stroke-linecap="round" fill-opacity="0" stroke-linejoin="round"/>
<path stroke="#bbdad8" stroke-width="40.39" d="M463,1081L688,1078L463,1078L463,1081Z" fill="#bbdad8" stroke-linecap="round" fill-opacity="0" stroke-linejoin="round"/>
<path stroke="#bbdad8" stroke-width="40.39" d="M1362,1081L1591,1078L1362,1078L1362,1081Z" fill="#bbdad8" stroke-linecap="round" fill-opacity="0" stroke-linejoin="round"/>
<path stroke="#bbdad8" stroke-width="40.39" d="M2265,1081L2490,1078L2265,1078L2265,1081Z" fill="#bbdad8" stroke-linecap="round" fill-opacity="0" stroke-linejoin="round"/>
<path stroke="#3f9a9c" stroke-width="40.39" d="M463,1078L688,1078L691,1074L688,1074L463,1074L463,1078Z" fill="#3f9a9c" stroke-linecap="round" fill-opacity="0" stroke-linejoin="round"/>
<path stroke="#3f9a9c" stroke-width="40.39" d="M1362,1078L1591,1078L1591,1074L1587,1074L1366,1074L1362,1074L1362,1078Z" fill="#3f9a9c" stroke-linecap="round" fill-opacity="0" stroke-linejoin="round"/>
<path stroke="#3f9a9c" stroke-width="40.39" d="M2265,1078L2490,1078L2490,1074L2265,1078Z" fill="#3f9a9c" stroke-linecap="round" fill-opacity="0" stroke-linejoin="round"/>
<path stroke="#bbdad8" stroke-width="40.39" d="M456,1074L460,1074L460,993L456,993L456,1074Z" fill="#bbdad8" stroke-linecap="round" fill-opacity="0" stroke-linejoin="round"/>
<path stroke="#3f9a9c" stroke-width="40.39" d="M460,1074L463,1074L460,990L460,993L460,1074Z" fill="#3f9a9c" stroke-linecap="round" fill-opacity="0" stroke-linejoin="round"/>
<path stroke="#15504f" stroke-width="40.39" d="M463,1074L688,1074L691,990L695,990L744,818L628,818L625,986L621,990L530,993L530,990L526,986L523,986L526,375L530,375L533,372L621,372L625,375L628,544L691,544L744,533L727,375L691,375L691,372L691,288L681,284L463,288L460,372L403,389L407,990L460,990L463,1074Z" fill="#15504f" stroke-linecap="round" fill-opacity="0" stroke-linejoin="round"/>
<path stroke="#32827e" stroke-width="40.39" d="M688,1074L691,1074L691,990L688,1074Z" fill="#32827e" stroke-linecap="round" fill-opacity="0" stroke-linejoin="round"/>
<path stroke="#84c9c9" stroke-width="40.39" d="M691,1074L695,993L695,990L691,990L691,1074Z" fill="#84c9c9" stroke-linecap="round" fill-opacity="0" stroke-linejoin="round"/>
<path stroke="#32827e" stroke-width="40.39" d="M1362,1074L1366,1074L1362,1022L1362,1074Z" fill="#32827e" stroke-linecap="round" fill-opacity="0" stroke-linejoin="round"/>
<path stroke="#15504f" stroke-width="40.39" d="M1366,1074L1587,1074L1591,993L1594,993L1594,990L1643,986L1643,818L1531,818L1527,983L1524,986L1524,990L1432,993L1432,990L1429,990L1432,986L1429,965L1425,965L1425,955L1422,955L1425,407L1429,396L1429,379L1429,375L1432,372L1520,372L1524,375L1527,379L1531,544L1643,544L1594,372L1591,372L1591,368L1587,368L1587,288L1366,288L1362,340L1359,372L1310,375L1310,986L1359,990L1362,1022L1366,1074Z" fill="#15504f" stroke-linecap="round" fill-opacity="0" stroke-linejoin="round"/>
<path stroke="#20676a" stroke-width="40.39" d="M1587,1074L1591,1074L1591,993L1587,1074Z" fill="#20676a" stroke-linecap="round" fill-opacity="0" stroke-linejoin="round"/>
<path stroke="#55b2b4" stroke-width="40.39" d="M1591,1074L1594,1067L1594,993L1591,993L1591,1074Z" fill="#55b2b4" stroke-linecap="round" fill-opacity="0" stroke-linejoin="round"/>
<path stroke="#bbdad8" stroke-width="40.39" d="M2258,1074L2261,1074L2258,1015L2258,1074Z" fill="#bbdad8" stroke-linecap="round" fill-opacity="0" stroke-linejoin="round"/>
<path stroke="#15504f" stroke-width="40.39" d="M2265,1078L2490,1074L2493,1018L2497,1018L2497,993L2497,990L2493,990L2542,986L2542,818L2497,818L2497,814L2497,811L2493,811L2490,797L2490,730L2444,730L2444,727L2440,727L2440,723L2437,723L2437,705L2433,705L2433,642L2398,642L2398,639L2388,639L2388,635L2384,635L2381,635L2384,579L2377,547L2335,551L2332,547L2328,547L2325,547L2328,375L2332,375L2332,372L2423,372L2426,375L2426,435L2430,460L2542,456L2497,372L2493,372L2490,358L2483,284L2272,288L2272,284L2265,288L2261,358L2261,347L2258,347L2212,375L2212,544L2244,547L2247,547L2258,554L2258,576L2296,639L2318,656L2370,727L2374,783L2391,814L2426,814L2426,986L2423,990L2332,993L2332,990L2332,986L2325,986L2328,927L2325,902L2212,906L2212,986L2258,990L2258,993L2258,1015L2261,1074L2265,1078Z" fill="#15504f" stroke-linecap="round" fill-opacity="0" stroke-linejoin="round"/>
<path stroke="#3f9a9c" stroke-width="40.39" d="M2490,1074L2493,1074L2493,1018L2490,1074Z" fill="#3f9a9c" stroke-linecap="round" fill-opacity="0" stroke-linejoin="round"/>
<path stroke="#bbdad8" stroke-width="40.39" d="M2493,1074L2497,1018L2493,1018L2493,1074Z" fill="#bbdad8" stroke-linecap="round" fill-opacity="0" stroke-linejoin="round"/>
<path stroke="#e5eae8" stroke-width="40.39" d="M1594,1067L1598,993L1594,993L1594,1067Z" fill="#e5eae8" stroke-linecap="round" fill-opacity="0" stroke-linejoin="round"/>
<path stroke="#55b2b4" stroke-width="40.39" d="M1359,1053L1362,1022L1359,990L1359,993L1359,1053Z" fill="#55b2b4" stroke-linecap="round" fill-opacity="0" stroke-linejoin="round"/>
<path stroke="#bbdad8" stroke-width="40.39" d="M407,993L456,993L460,993L460,990L407,990L407,993Z" fill="#bbdad8" stroke-linecap="round" fill-opacity="0" stroke-linejoin="round"/>
<path stroke="#20676a" stroke-width="40.39" d="M530,993L621,990L530,990L530,993Z" fill="#20676a" stroke-linecap="round" fill-opacity="0" stroke-linejoin="round"/>
<path stroke="#bbdad8" stroke-width="40.39" d="M695,993L744,990L695,990L695,993Z" fill="#bbdad8" stroke-linecap="round" fill-opacity="0" stroke-linejoin="round"/>
<path stroke="#bbdad8" stroke-width="40.39" d="M1310,993L1359,993L1359,990L1310,990L1310,993Z" fill="#bbdad8" stroke-linecap="round" fill-opacity="0" stroke-linejoin="round"/>
<path stroke="#20676a" stroke-width="40.39" d="M1432,993L1524,990L1432,990L1432,993Z" fill="#20676a" stroke-linecap="round" fill-opacity="0" stroke-linejoin="round"/>
<path stroke="#bbdad8" stroke-width="40.39" d="M1594,993L1598,993L1643,990L1594,990L1594,993Z" fill="#bbdad8" stroke-linecap="round" fill-opacity="0" stroke-linejoin="round"/>
<path stroke="#bbdad8" stroke-width="40.39" d="M2209,993L2258,993L2258,990L2209,990L2209,993Z" fill="#bbdad8" stroke-linecap="round" fill-opacity="0" stroke-linejoin="round"/>
<path stroke="#20676a" stroke-width="40.39" d="M2332,993L2423,990L2332,990L2332,993Z" fill="#20676a" stroke-linecap="round" fill-opacity="0" stroke-linejoin="round"/>
<path stroke="#bbdad8" stroke-width="40.39" d="M2497,993L2546,990L2497,990L2497,993Z" fill="#bbdad8" stroke-linecap="round" fill-opacity="0" stroke-linejoin="round"/>
<path stroke="#3f9a9c" stroke-width="40.39" d="M695,990L744,990L695,990Z" fill="#3f9a9c" stroke-linecap="round" fill-opacity="0" stroke-linejoin="round"/>
<path stroke="#3f9a9c" stroke-width="40.39" d="M1310,990L1359,990L1310,986L1310,990Z" fill="#3f9a9c" stroke-linecap="round" fill-opacity="0" stroke-linejoin="round"/>
<path stroke="#55b2b4" stroke-width="40.39" d="M1429,990L1432,990L1524,990L1524,986L1524,983L1520,983L1432,986L1429,990Z" fill="#55b2b4" stroke-linecap="round" fill-opacity="0" stroke-linejoin="round"/>
<path stroke="#3f9a9c" stroke-width="40.39" d="M1594,990L1643,990L1647,986L1643,986L1594,990Z" fill="#3f9a9c" stroke-linecap="round" fill-opacity="0" stroke-linejoin="round"/>
<path stroke="#3f9a9c" stroke-width="40.39" d="M2209,990L2258,990L2212,986L2209,986L2209,990Z" fill="#3f9a9c" stroke-linecap="round" fill-opacity="0" stroke-linejoin="round"/>
<path stroke="#55b2b4" stroke-width="40.39" d="M2332,990L2423,990L2426,986L2423,986L2332,986L2332,990Z" fill="#55b2b4" stroke-linecap="round" fill-opacity="0" stroke-linejoin="round"/>
<path stroke="#3f9a9c" stroke-width="40.39" d="M2493,990L2497,990L2546,990L2546,986L2542,986L2493,990Z" fill="#3f9a9c" stroke-linecap="round" fill-opacity="0" stroke-linejoin="round"/>
<path stroke="#32827e" stroke-width="40.39" d="M523,986L526,986L526,375L523,986Z" fill="#32827e" stroke-linecap="round" fill-opacity="0" stroke-linejoin="round"/>
<path stroke="#98d1cf" stroke-width="40.39" d="M526,986L530,888L530,797L530,663L530,565L530,491L530,428L547,379L625,547L625,375L530,375L526,375L526,986Z" fill="#98d1cf" stroke-linecap="round" fill-opacity="0" stroke-linejoin="round"/>
<path stroke="#3f9a9c" stroke-width="40.39" d="M625,986L628,818L628,814L625,986Z" fill="#3f9a9c" stroke-linecap="round" fill-opacity="0" stroke-linejoin="round"/>
<path stroke="#3f9a9c" stroke-width="40.39" d="M1306,986L1310,986L1310,375L1306,396L1306,986Z" fill="#3f9a9c" stroke-linecap="round" fill-opacity="0" stroke-linejoin="round"/>
<path stroke="#55b2b4" stroke-width="40.39" d="M1524,986L1527,983L1527,818L1527,814L1524,871L1524,983L1524,986Z" fill="#55b2b4" stroke-linecap="round" fill-opacity="0" stroke-linejoin="round"/>
<path stroke="#32827e" stroke-width="40.39" d="M1643,986L1647,986L1647,814L1643,814L1643,818L1643,986Z" fill="#32827e" stroke-linecap="round" fill-opacity="0" stroke-linejoin="round"/>
<path stroke="#84c9c9" stroke-width="40.39" d="M1647,986L1647,814L1647,986Z" fill="#84c9c9" stroke-linecap="round" fill-opacity="0" stroke-linejoin="round"/>
<path stroke="#55b2b4" stroke-width="40.39" d="M2205,986L2209,986L2209,906L2209,902L2205,906L2205,986Z" fill="#55b2b4" stroke-linecap="round" fill-opacity="0" stroke-linejoin="round"/>
<path stroke="#20676a" stroke-width="40.39" d="M2209,986L2212,986L2212,906L2209,906L2209,986Z" fill="#20676a" stroke-linecap="round" fill-opacity="0" stroke-linejoin="round"/>
<path stroke="#32827e" stroke-width="40.39" d="M2325,986L2328,927L2325,986Z" fill="#32827e" stroke-linecap="round" fill-opacity="0" stroke-linejoin="round"/>
<path stroke="#84c9c9" stroke-width="40.39" d="M2423,986L2426,986L2426,814L2423,814L2423,986Z" fill="#84c9c9" stroke-linecap="round" fill-opacity="0" stroke-linejoin="round"/>
<path stroke="#32827e" stroke-width="40.39" d="M2426,986L2426,814L2426,986Z" fill="#32827e" stroke-linecap="round" fill-opacity="0" stroke-linejoin="round"/>
<path stroke="#20676a" stroke-width="40.39" d="M2542,986L2546,986L2546,818L2542,818L2542,986Z" fill="#20676a" stroke-linecap="round" fill-opacity="0" stroke-linejoin="round"/>
<path stroke="#55b2b4" stroke-width="40.39" d="M2546,986L2549,983L2549,818L2546,814L2546,818L2546,986Z" fill="#55b2b4" stroke-linecap="round" fill-opacity="0" stroke-linejoin="round"/>
<path stroke="#e5eae8" stroke-width="40.39" d="M1520,983L1524,983L1524,871L1520,983Z" fill="#e5eae8" stroke-linecap="round" fill-opacity="0" stroke-linejoin="round"/>
<path stroke="#20676a" stroke-width="40.39" d="M1527,983L1531,818L1527,818L1527,983Z" fill="#20676a" stroke-linecap="round" fill-opacity="0" stroke-linejoin="round"/>
<path stroke="#e5eae8" stroke-width="40.39" d="M2205,986L2205,906L2202,983L2205,986Z" fill="#e5eae8" stroke-linecap="round" fill-opacity="0" stroke-linejoin="round"/>
<path stroke="#e5eae8" stroke-width="40.39" d="M2549,983L2549,818L2549,983Z" fill="#e5eae8" stroke-linecap="round" fill-opacity="0" stroke-linejoin="round"/>
<path stroke="#84c9c9" stroke-width="40.39" d="M1303,965L1306,396L1303,965Z" fill="#84c9c9" stroke-linecap="round" fill-opacity="0" stroke-linejoin="round"/>
<path stroke="#55b2b4" stroke-width="40.39" d="M1425,965L1429,965L1429,396L1425,407L1425,955L1425,965Z" fill="#55b2b4" stroke-linecap="round" fill-opacity="0" stroke-linejoin="round"/>
<path stroke="#20676a" stroke-width="40.39" d="M1422,955L1425,955L1425,407L1422,955Z" fill="#20676a" stroke-linecap="round" fill-opacity="0" stroke-linejoin="round"/>
<path stroke="#20676a" stroke-width="40.39" d="M2209,906L2212,906L2325,902L2209,902L2209,906Z" fill="#20676a" stroke-linecap="round" fill-opacity="0" stroke-linejoin="round"/>
<path stroke="#55b2b4" stroke-width="40.39" d="M2209,902L2325,902L2311,899L2226,899L2209,902Z" fill="#55b2b4" stroke-linecap="round" fill-opacity="0" stroke-linejoin="round"/>
<path stroke="#e5eae8" stroke-width="40.39" d="M2226,899L2311,899L2226,899Z" fill="#e5eae8" stroke-linecap="round" fill-opacity="0" stroke-linejoin="round"/>
<path stroke="#20676a" stroke-width="40.39" d="M628,818L744,818L628,814L628,818Z" fill="#20676a" stroke-linecap="round" fill-opacity="0" stroke-linejoin="round"/>
<path stroke="#20676a" stroke-width="40.39" d="M1527,818L1531,818L1643,818L1643,814L1527,814L1527,818Z" fill="#20676a" stroke-linecap="round" fill-opacity="0" stroke-linejoin="round"/>
<path stroke="#20676a" stroke-width="40.39" d="M2497,818L2542,818L2546,818L2546,814L2497,814L2497,818Z" fill="#20676a" stroke-linecap="round" fill-opacity="0" stroke-linejoin="round"/>
<path stroke="#55b2b4" stroke-width="40.39" d="M628,814L744,818L639,811L628,814Z" fill="#55b2b4" stroke-linecap="round" fill-opacity="0" stroke-linejoin="round"/>
<path stroke="#55b2b4" stroke-width="40.39" d="M1527,814L1643,814L1647,814L1633,811L1538,811L1527,814Z" fill="#55b2b4" stroke-linecap="round" fill-opacity="0" stroke-linejoin="round"/>
<path stroke="#3f9a9c" stroke-width="40.39" d="M2391,814L2423,814L2426,814L2391,814Z" fill="#3f9a9c" stroke-linecap="round" fill-opacity="0" stroke-linejoin="round"/>
<path stroke="#55b2b4" stroke-width="40.39" d="M2497,814L2546,814L2535,811L2497,811L2497,814Z" fill="#55b2b4" stroke-linecap="round" fill-opacity="0" stroke-linejoin="round"/>
<path stroke="#e5eae8" stroke-width="40.39" d="M639,811L734,811L639,811Z" fill="#e5eae8" stroke-linecap="round" fill-opacity="0" stroke-linejoin="round"/>
<path stroke="#e5eae8" stroke-width="40.39" d="M1538,811L1633,811L1538,811Z" fill="#e5eae8" stroke-linecap="round" fill-opacity="0" stroke-linejoin="round"/>
<path stroke="#e5eae8" stroke-width="40.39" d="M2367,811L2370,811L2370,783L2370,755L2367,811Z" fill="#e5eae8" stroke-linecap="round" fill-opacity="0" stroke-linejoin="round"/>
<path stroke="#55b2b4" stroke-width="40.39" d="M2370,811L2374,783L2370,783L2370,811Z" fill="#55b2b4" stroke-linecap="round" fill-opacity="0" stroke-linejoin="round"/>
<path stroke="#84c9c9" stroke-width="40.39" d="M2493,811L2497,811L2497,807L2497,783L2493,783L2490,797L2493,811Z" fill="#84c9c9" stroke-linecap="round" fill-opacity="0" stroke-linejoin="round"/>
<path stroke="#e5eae8" stroke-width="40.39" d="M2497,811L2535,811L2497,807L2497,811Z" fill="#e5eae8" stroke-linecap="round" fill-opacity="0" stroke-linejoin="round"/>
<path stroke="#3f9a9c" stroke-width="40.39" d="M2490,797L2493,783L2493,727L2490,727L2490,730L2490,797Z" fill="#3f9a9c" stroke-linecap="round" fill-opacity="0" stroke-linejoin="round"/>
<path stroke="#3f9a9c" stroke-width="40.39" d="M2370,783L2374,783L2370,727L2370,755L2370,783Z" fill="#3f9a9c" stroke-linecap="round" fill-opacity="0" stroke-linejoin="round"/>
<path stroke="#bbdad8" stroke-width="40.39" d="M2493,783L2497,783L2493,727L2493,783Z" fill="#bbdad8" stroke-linecap="round" fill-opacity="0" stroke-linejoin="round"/>
<path stroke="#20676a" stroke-width="40.39" d="M2444,730L2490,730L2490,727L2444,727L2444,730Z" fill="#20676a" stroke-linecap="round" fill-opacity="0" stroke-linejoin="round"/>
<path stroke="#55b2b4" stroke-width="40.39" d="M2440,727L2444,727L2490,727L2493,727L2486,723L2440,723L2440,727Z" fill="#55b2b4" stroke-linecap="round" fill-opacity="0" stroke-linejoin="round"/>
<path stroke="#84c9c9" stroke-width="40.39" d="M2314,723L2318,723L2318,667L2314,723Z" fill="#84c9c9" stroke-linecap="round" fill-opacity="0" stroke-linejoin="round"/>
<path stroke="#32827e" stroke-width="40.39" d="M2318,723L2318,656L2318,667L2318,723Z" fill="#32827e" stroke-linecap="round" fill-opacity="0" stroke-linejoin="round"/>
<path stroke="#55b2b4" stroke-width="40.39" d="M2437,723L2440,723L2440,720L2440,670L2437,670L2437,705L2437,723Z" fill="#55b2b4" stroke-linecap="round" fill-opacity="0" stroke-linejoin="round"/>
<path stroke="#e5eae8" stroke-width="40.39" d="M2440,723L2486,723L2440,720L2440,723Z" fill="#e5eae8" stroke-linecap="round" fill-opacity="0" stroke-linejoin="round"/>
<path stroke="#32827e" stroke-width="40.39" d="M2433,705L2437,705L2437,670L2437,639L2433,639L2433,642L2433,705Z" fill="#32827e" stroke-linecap="round" fill-opacity="0" stroke-linejoin="round"/>
<path stroke="#84c9c9" stroke-width="40.39" d="M2437,670L2440,670L2437,639L2437,670Z" fill="#84c9c9" stroke-linecap="round" fill-opacity="0" stroke-linejoin="round"/>
<path stroke="#20676a" stroke-width="40.39" d="M2398,642L2433,642L2433,639L2398,639L2398,642Z" fill="#20676a" stroke-linecap="round" fill-opacity="0" stroke-linejoin="round"/>
<path stroke="#55b2b4" stroke-width="40.39" d="M2265,639L2296,639L2265,639Z" fill="#55b2b4" stroke-linecap="round" fill-opacity="0" stroke-linejoin="round"/>
<path stroke="#55b2b4" stroke-width="40.39" d="M2388,639L2398,639L2433,639L2437,639L2433,635L2388,635L2388,639Z" fill="#55b2b4" stroke-linecap="round" fill-opacity="0" stroke-linejoin="round"/>
<path stroke="#bbdad8" stroke-width="40.39" d="M2258,635L2258,576L2258,635Z" fill="#bbdad8" stroke-linecap="round" fill-opacity="0" stroke-linejoin="round"/>
<path stroke="#3f9a9c" stroke-width="40.39" d="M2381,635L2384,635L2384,579L2381,635Z" fill="#3f9a9c" stroke-linecap="round" fill-opacity="0" stroke-linejoin="round"/>
<path stroke="#bbdad8" stroke-width="40.39" d="M2384,635L2388,635L2388,632L2384,579L2384,635Z" fill="#bbdad8" stroke-linecap="round" fill-opacity="0" stroke-linejoin="round"/>
<path stroke="#e5eae8" stroke-width="40.39" d="M2388,635L2433,635L2388,632L2388,635Z" fill="#e5eae8" stroke-linecap="round" fill-opacity="0" stroke-linejoin="round"/>
<path stroke="#e5eae8" stroke-width="40.39" d="M632,554L741,551L632,554Z" fill="#e5eae8" stroke-linecap="round" fill-opacity="0" stroke-linejoin="round"/>
<path stroke="#e5eae8" stroke-width="40.39" d="M1531,554L1643,551L1531,554Z" fill="#e5eae8" stroke-linecap="round" fill-opacity="0" stroke-linejoin="round"/>
<path stroke="#e5eae8" stroke-width="40.39" d="M2212,554L2258,554L2247,547L2212,554Z" fill="#e5eae8" stroke-linecap="round" fill-opacity="0" stroke-linejoin="round"/>
<path stroke="#55b2b4" stroke-width="40.39" d="M632,554L741,551L744,547L628,547L628,551L632,554Z" fill="#55b2b4" stroke-linecap="round" fill-opacity="0" stroke-linejoin="round"/>
<path stroke="#55b2b4" stroke-width="40.39" d="M1531,554L1643,551L1647,547L1643,547L1527,547L1527,551L1531,554Z" fill="#55b2b4" stroke-linecap="round" fill-opacity="0" stroke-linejoin="round"/>
<path stroke="#55b2b4" stroke-width="40.39" d="M2212,554L2247,547L2244,547L2209,547L2209,551L2212,554Z" fill="#55b2b4" stroke-linecap="round" fill-opacity="0" stroke-linejoin="round"/>
<path stroke="#e5eae8" stroke-width="40.39" d="M2335,551L2377,547L2332,544L2332,547L2335,551Z" fill="#e5eae8" stroke-linecap="round" fill-opacity="0" stroke-linejoin="round"/>
<path stroke="#3f9a9c" stroke-width="40.39" d="M625,547L628,547L628,544L625,375L625,547Z" fill="#3f9a9c" stroke-linecap="round" fill-opacity="0" stroke-linejoin="round"/>
<path stroke="#20676a" stroke-width="40.39" d="M628,547L744,547L744,533L691,544L628,544L628,547Z" fill="#20676a" stroke-linecap="round" fill-opacity="0" stroke-linejoin="round"/>
<path stroke="#55b2b4" stroke-width="40.39" d="M1524,547L1527,547L1527,544L1527,379L1524,375L1524,379L1524,547Z" fill="#55b2b4" stroke-linecap="round" fill-opacity="0" stroke-linejoin="round"/>
<path stroke="#20676a" stroke-width="40.39" d="M1527,547L1643,547L1643,544L1531,544L1527,544L1527,547Z" fill="#20676a" stroke-linecap="round" fill-opacity="0" stroke-linejoin="round"/>
<path stroke="#32827e" stroke-width="40.39" d="M1643,547L1647,547L1647,375L1643,544L1643,547Z" fill="#32827e" stroke-linecap="round" fill-opacity="0" stroke-linejoin="round"/>
<path stroke="#84c9c9" stroke-width="40.39" d="M1647,547L1647,375L1647,547Z" fill="#84c9c9" stroke-linecap="round" fill-opacity="0" stroke-linejoin="round"/>
<path stroke="#55b2b4" stroke-width="40.39" d="M2205,547L2209,547L2209,544L2205,379L2205,547Z" fill="#55b2b4" stroke-linecap="round" fill-opacity="0" stroke-linejoin="round"/>
<path stroke="#20676a" stroke-width="40.39" d="M2209,547L2244,547L2212,544L2209,544L2209,547Z" fill="#20676a" stroke-linecap="round" fill-opacity="0" stroke-linejoin="round"/>
<path stroke="#32827e" stroke-width="40.39" d="M2325,547L2328,547L2328,375L2325,547Z" fill="#32827e" stroke-linecap="round" fill-opacity="0" stroke-linejoin="round"/>
<path stroke="#84c9c9" stroke-width="40.39" d="M2328,547L2332,547L2332,544L2332,379L2332,375L2328,375L2328,547Z" fill="#84c9c9" stroke-linecap="round" fill-opacity="0" stroke-linejoin="round"/>
<path stroke="#20676a" stroke-width="40.39" d="M1527,544L1531,544L1527,379L1527,544Z" fill="#20676a" stroke-linecap="round" fill-opacity="0" stroke-linejoin="round"/>
<path stroke="#e5eae8" stroke-width="40.39" d="M2205,547L2205,379L2202,544L2205,547Z" fill="#e5eae8" stroke-linecap="round" fill-opacity="0" stroke-linejoin="round"/>
<path stroke="#20676a" stroke-width="40.39" d="M2209,544L2212,544L2212,375L2209,544Z" fill="#20676a" stroke-linecap="round" fill-opacity="0" stroke-linejoin="round"/>
<path stroke="#e5eae8" stroke-width="40.39" d="M1520,491L1524,379L1520,379L1520,491Z" fill="#e5eae8" stroke-linecap="round" fill-opacity="0" stroke-linejoin="round"/>
<path stroke="#e5eae8" stroke-width="40.39" d="M2433,467L2539,463L2433,467Z" fill="#e5eae8" stroke-linecap="round" fill-opacity="0" stroke-linejoin="round"/>
<path stroke="#55b2b4" stroke-width="40.39" d="M2433,467L2539,463L2546,460L2430,460L2430,463L2433,467Z" fill="#55b2b4" stroke-linecap="round" fill-opacity="0" stroke-linejoin="round"/>
<path stroke="#20676a" stroke-width="40.39" d="M2430,460L2546,460L2546,456L2542,456L2430,460Z" fill="#20676a" stroke-linecap="round" fill-opacity="0" stroke-linejoin="round"/>
<path stroke="#55b2b4" stroke-width="40.39" d="M2546,460L2549,456L2549,379L2546,375L2546,456L2546,460Z" fill="#55b2b4" stroke-linecap="round" fill-opacity="0" stroke-linejoin="round"/>
<path stroke="#20676a" stroke-width="40.39" d="M2542,456L2546,456L2546,375L2542,456Z" fill="#20676a" stroke-linecap="round" fill-opacity="0" stroke-linejoin="round"/>
<path stroke="#e5eae8" stroke-width="40.39" d="M2549,456L2549,379L2549,456Z" fill="#e5eae8" stroke-linecap="round" fill-opacity="0" stroke-linejoin="round"/>
<path stroke="#32827e" stroke-width="40.39" d="M2426,435L2426,375L2426,435Z" fill="#32827e" stroke-linecap="round" fill-opacity="0" stroke-linejoin="round"/>
<path stroke="#e5eae8" stroke-width="40.39" d="M1429,379L1520,379L1524,379L1524,375L1429,375L1429,379Z" fill="#e5eae8" stroke-linecap="round" fill-opacity="0" stroke-linejoin="round"/>
<path stroke="#e5eae8" stroke-width="40.39" d="M2332,379L2423,375L2332,375L2332,379Z" fill="#e5eae8" stroke-linecap="round" fill-opacity="0" stroke-linejoin="round"/>
<path stroke="#55b2b4" stroke-width="40.39" d="M530,375L625,375L621,372L533,372L530,375Z" fill="#55b2b4" stroke-linecap="round" fill-opacity="0" stroke-linejoin="round"/>
<path stroke="#3f9a9c" stroke-width="40.39" d="M691,375L727,375L695,372L691,372L691,375Z" fill="#3f9a9c" stroke-linecap="round" fill-opacity="0" stroke-linejoin="round"/>
<path stroke="#3f9a9c" stroke-width="40.39" d="M1310,375L1359,372L1327,372L1327,368L1310,375Z" fill="#3f9a9c" stroke-linecap="round" fill-opacity="0" stroke-linejoin="round"/>
<path stroke="#55b2b4" stroke-width="40.39" d="M1429,375L1524,375L1520,372L1432,372L1429,375Z" fill="#55b2b4" stroke-linecap="round" fill-opacity="0" stroke-linejoin="round"/>
<path stroke="#55b2b4" stroke-width="40.39" d="M2332,375L2423,375L2426,375L2423,372L2332,372L2332,375Z" fill="#55b2b4" stroke-linecap="round" fill-opacity="0" stroke-linejoin="round"/>
<path stroke="#3f9a9c" stroke-width="40.39" d="M460,372L463,288L460,372Z" fill="#3f9a9c" stroke-linecap="round" fill-opacity="0" stroke-linejoin="round"/>
<path stroke="#20676a" stroke-width="40.39" d="M533,372L621,372L533,372Z" fill="#20676a" stroke-linecap="round" fill-opacity="0" stroke-linejoin="round"/>
<path stroke="#84c9c9" stroke-width="40.39" d="M691,372L695,372L695,368L691,288L691,372Z" fill="#84c9c9" stroke-linecap="round" fill-opacity="0" stroke-linejoin="round"/>
<path stroke="#bbdad8" stroke-width="40.39" d="M695,372L727,375L695,372Z" fill="#bbdad8" stroke-linecap="round" fill-opacity="0" stroke-linejoin="round"/>
<path stroke="#bbdad8" stroke-width="40.39" d="M1327,372L1359,372L1359,368L1327,368L1327,372Z" fill="#bbdad8" stroke-linecap="round" fill-opacity="0" stroke-linejoin="round"/>
<path stroke="#55b2b4" stroke-width="40.39" d="M1359,372L1362,340L1362,309L1359,368L1359,372Z" fill="#55b2b4" stroke-linecap="round" fill-opacity="0" stroke-linejoin="round"/>
<path stroke="#20676a" stroke-width="40.39" d="M1432,372L1520,372L1432,372Z" fill="#20676a" stroke-linecap="round" fill-opacity="0" stroke-linejoin="round"/>
<path stroke="#55b2b4" stroke-width="40.39" d="M1591,372L1594,372L1594,368L1594,295L1591,288L1591,368L1591,372Z" fill="#55b2b4" stroke-linecap="round" fill-opacity="0" stroke-linejoin="round"/>
<path stroke="#20676a" stroke-width="40.39" d="M2332,372L2423,372L2332,372Z" fill="#20676a" stroke-linecap="round" fill-opacity="0" stroke-linejoin="round"/>
<path stroke="#84c9c9" stroke-width="40.39" d="M2493,372L2497,372L2497,344L2493,344L2490,358L2493,372Z" fill="#84c9c9" stroke-linecap="round" fill-opacity="0" stroke-linejoin="round"/>
<path stroke="#bbdad8" stroke-width="40.39" d="M456,368L460,288L456,368Z" fill="#bbdad8" stroke-linecap="round" fill-opacity="0" stroke-linejoin="round"/>
<path stroke="#20676a" stroke-width="40.39" d="M1587,368L1591,368L1591,288L1587,288L1587,368Z" fill="#20676a" stroke-linecap="round" fill-opacity="0" stroke-linejoin="round"/>
<path stroke="#e5eae8" stroke-width="40.39" d="M1594,368L1594,295L1594,368Z" fill="#e5eae8" stroke-linecap="round" fill-opacity="0" stroke-linejoin="round"/>
<path stroke="#3f9a9c" stroke-width="40.39" d="M2261,358L2265,288L2261,347L2261,358Z" fill="#3f9a9c" stroke-linecap="round" fill-opacity="0" stroke-linejoin="round"/>
<path stroke="#3f9a9c" stroke-width="40.39" d="M2490,358L2493,344L2493,288L2490,358Z" fill="#3f9a9c" stroke-linecap="round" fill-opacity="0" stroke-linejoin="round"/>
<path stroke="#bbdad8" stroke-width="40.39" d="M2258,347L2261,347L2261,319L2258,347Z" fill="#bbdad8" stroke-linecap="round" fill-opacity="0" stroke-linejoin="round"/>
<path stroke="#bbdad8" stroke-width="40.39" d="M2493,344L2497,344L2493,288L2493,344Z" fill="#bbdad8" stroke-linecap="round" fill-opacity="0" stroke-linejoin="round"/>
<path stroke="#32827e" stroke-width="40.39" d="M1362,340L1366,288L1362,309L1362,340Z" fill="#32827e" stroke-linecap="round" fill-opacity="0" stroke-linejoin="round"/>
<path stroke="#3f9a9c" stroke-width="40.39" d="M463,288L681,284L463,288Z" fill="#3f9a9c" stroke-linecap="round" fill-opacity="0" stroke-linejoin="round"/>
<path stroke="#3f9a9c" stroke-width="40.39" d="M1366,288L1587,288L1591,288L1366,288Z" fill="#3f9a9c" stroke-linecap="round" fill-opacity="0" stroke-linejoin="round"/>
<path stroke="#3f9a9c" stroke-width="40.39" d="M2272,288L2483,284L2272,284L2272,288Z" fill="#3f9a9c" stroke-linecap="round" fill-opacity="0" stroke-linejoin="round"/>
<path stroke="#0761e0" stroke-width="40.39" d="M3094,182L3080,172L3094,182Z" fill="#0761e0" stroke-linecap="round" fill-opacity="0" stroke-linejoin="round"/>
</g>
<g id="layer2">
<path stroke="#390c43" stroke-width="0" d="M38,1394L238,1394L439,1394L639,1394L839,1394L1039,1394L1239,1394L1440,1394L1640,1394L1840,1394L2040,1394L2240,1394L2440,1394L2641,1394L2841,1394L3041,1394C3091.5,1396.6 3218.5,1408.7 3153,1345C3093.1,1339.5 3018.2,1343 2957,1341L2757,1341L2556,1341L2356,1341L2156,1341L1956,1341L1756,1341L1555,1341L1355,1341L1155,1341L955,1341L755,1341L554,1341L354,1341L154,1341C102.6,1340.2 -18.9,1326.4 38,1394M3139,1380L2943,1380L2746,1380L2549,1380L2353,1380L2156,1380L1959,1380L1763,1380L1569,1380L1373,1380L1176,1380L979,1380L786,1380L590,1380L393,1380L196,1380C157.9,1374.2 12.6,1397.1 59,1359C117.8,1351.7 189.5,1357.9 252,1355L449,1355L646,1355L842,1355L1039,1355L1236,1355L1432,1355L1626,1355L1822,1355L2019,1355L2216,1355L2409,1355L2606,1355L2802,1355L2999,1355C3041.7,1361.1 3177.4,1340.6 3139,1380M38,1306L235,1306L432,1306L628,1306L825,1306L1022,1306L1218,1306L1415,1306L1612,1306L1808,1306L2005,1306L2202,1306L2398,1306L2595,1306L2792,1306L2988,1306C3034,1293 3158.4,1333.6 3143,1278C3083.6,1272.7 3014.4,1276.3 2950,1274L2753,1274L2556,1274L2360,1274L2163,1274L1966,1274L1770,1274L1573,1274L1376,1274L1180,1274L983,1274L786,1274L590,1274L393,1274L196,1274C148.6,1289.7 31.8,1245.6 38,1306M49,1232L245,1232L442,1232L639,1232L835,1232L1032,1232L1229,1232L1425,1232L1619,1232L1815,1232L2012,1232L2209,1232L2405,1232L2602,1232L2799,1232L2995,1232C3038.8,1227.2 3168.9,1245.2 3146,1218L2950,1218L2753,1218L2556,1218L2360,1218L2163,1218L1966,1218L1770,1218L1576,1218L1380,1218L1183,1218L986,1218L790,1218L593,1218L396,1218L200,1218C158.8,1224.5 24.8,1206.4 49,1232M477,1078C546.7,1076 628.8,1082.2 688,1074C650.9,965.9 776.9,1016 748,920C774.9,822.2 726.8,794.3 639,814C602.5,848.4 651.2,967.3 604,990C493.7,1029.5 532.9,914.4 526,853L526,639L526,424C489.6,347.4 671.4,349.6 625,432C607.6,520.9 627.5,576.9 723,547C761.2,531.3 751.8,397.9 730,375C719.6,368.1 688.7,380.2 691,358C715,282.9 665.3,274.6 607,284C548.7,295.8 431.6,249 460,347C470.1,376.4 446.1,371.2 432,375C384.8,380.9 419.4,473.4 407,509L407,723L407,937C407.7,954.1 405.5,981 410,986C493.2,956.9 437.8,1070.3 477,1078M1376,1078C1445.8,1076 1527.9,1082.2 1587,1074C1548.2,964.1 1679.5,1019.5 1647,920C1675.5,820.6 1625.8,794.3 1538,814C1506.4,853.1 1555.5,972.5 1503,990C1394.8,1027.5 1431.4,915.1 1425,853L1425,639L1425,424C1390.6,349.1 1567.3,349.9 1527,428C1513.1,514.4 1523,580.5 1622,547C1659.9,533 1651.3,396.2 1629,375C1616.9,369.9 1589.8,378.2 1591,358C1614.1,282.9 1564.4,274.6 1506,284C1447.9,295.9 1328.9,247.2 1362,351C1367.3,374.5 1345.5,371.5 1331,375C1284.4,381.4 1317.9,472.8 1306,509L1306,723L1306,937C1306.5,954.5 1304.7,980.9 1313,983C1388.8,960.5 1346.4,1060.8 1376,1078M2279,1078C2347.7,1072.9 2440.5,1087.5 2490,1067C2456.4,961.4 2586.4,1018.8 2546,906C2592,787.9 2462.8,844.5 2493,741C2496.7,719.3 2465.9,731.4 2455,723C2422.4,702.3 2461.2,609.6 2384,632C2426.7,529.9 2292.6,577.3 2328,474C2291.2,381.1 2370.6,341 2426,389C2375.1,484.8 2539.7,474.7 2546,432C2544.2,415.4 2550.2,390.7 2542,379C2463.6,404.7 2514.9,299.6 2472,288C2409.4,287.5 2314,276.8 2265,295C2300.4,402.7 2169.2,344.1 2209,456C2163.6,574.7 2291.8,519.1 2261,621C2260.6,641.7 2287.7,633.3 2300,639C2334.7,658.9 2291.7,755.7 2370,730C2329.6,833.9 2461.7,785.3 2426,888C2465,981.5 2385.1,1022.5 2328,972C2380.4,877.9 2215.8,888.1 2209,930C2211.3,947.4 2205.3,972.1 2212,983C2289.8,960.1 2243.8,1060.1 2279,1078M646,1064C592.8,1047.4 471.1,1098.9 477,1022C478.5,1004.6 478,980.3 467,979C403.5,992 429.8,914.2 424,867L424,656L424,449L424,396C492,411.6 471,332.6 488,302C550.1,303.4 634.2,288.5 674,316C638.1,408.5 763.7,363.3 734,460C783.4,546.9 627.5,564.1 639,495C629.3,431.5 679.5,328.7 572,358C473.1,335.1 524.9,442.7 512,498L512,709L512,916C478.9,1004.2 547.2,1024.2 621,1004C664.8,979.5 618.3,871.4 649,832C740.3,792.7 745.7,882.2 730,948C740.5,974.9 716.6,975.7 702,972C645.4,974.3 709.3,1069.8 646,1064M1548,1064C1495.5,1048.7 1373.7,1096.8 1380,1025C1379.8,957.1 1281.6,981.7 1320,878L1320,670L1320,463C1286.2,360.3 1415.5,416 1380,316C1420.7,287.8 1512.4,302.1 1566,302C1578,307.1 1574.7,335.1 1576,344C1559.8,412.9 1659.1,365.1 1633,442C1677.2,527.6 1566.4,571.2 1545,505C1536.3,445.9 1575.8,332.7 1485,358C1381.8,323.3 1417.4,432.5 1411,491L1411,698L1411,906C1385.4,999 1438.3,1026.5 1513,1004C1570.5,994.1 1532.8,875.4 1545,835C1629.9,794.9 1648.1,867.4 1633,941C1628.5,953.2 1632,981.4 1612,972C1542.9,955.2 1608.2,1072 1548,1064M2448,1064C2393.2,1050.4 2264.4,1096 2279,1022C2277.3,980.5 2154.5,926.2 2272,920C2347.1,918.8 2273.5,1050.8 2395,1008C2480.1,1015.7 2424.5,904.2 2440,846C2447.9,835.6 2441.5,811.3 2433,804C2356.1,828.3 2411.5,719 2367,709C2347,710.9 2329,710.2 2335,684C2364.6,603.6 2268.5,641.8 2275,586C2284.4,574.1 2275.8,552 2272,540C2209.1,550.3 2222.7,482.8 2223,428C2222.3,408.9 2221,388.8 2240,389C2314.1,403.8 2246.5,295.5 2304,302C2354.3,311.4 2477.1,269.2 2476,340C2473.6,383.4 2607.4,434.7 2479,446C2412.5,439.9 2480.6,313.4 2356,358C2273.5,350.8 2336.3,470.7 2311,519C2312.7,536.9 2313,555.3 2325,561C2404.1,536.8 2336.4,658.3 2395,653C2414.6,652.7 2426.2,659.9 2419,684C2392.3,760.5 2499.4,723 2476,779C2476.6,798 2477,816.2 2486,825C2553.5,812.3 2527.9,891.8 2532,941C2533.8,961.5 2533,979.5 2507,972C2442.9,967.6 2512.1,1075.3 2448,1064M2929,576C2993.4,586.4 2993.3,496.2 2946,491C2880.1,483 2885.3,569.8 2929,576M2943,565C2876.3,534.3 2929.9,539.3 2943,512C2936.4,471.2 3006.6,566 2943,565M3255,554C3250.3,519.3 3298.7,514.1 3241,519C3218.6,526.5 3265.2,517.2 3255,554M3273,544C3299.4,533 3318.1,465 3273,463C3239.5,439.9 3197.2,491.9 3220,519C3262.1,571 3191.6,469 3248,474C3306.9,458 3289.9,522.6 3273,544M3122,214C3155.2,210.7 3185.6,168.3 3153,140C3140.3,103.1 3056.7,156.2 3101,144C3131.8,121 3177.6,170.8 3143,193C3103.3,200.3 3062.3,182.9 3122,214M3076,175C3105.7,191.1 3128.7,143.3 3108,151C3110.8,171.2 3040.9,164.1 3076,175Z" fill="#390c43" stroke-linecap="round" fill-opacity="0.8" stroke-linejoin="round"/>
</g>
</svg>
